<svg width="166" height="166" viewBox="0 0 166 166" fill="none" xmlns="http://www.w3.org/2000/svg">
<path fill-rule="evenodd" clip-rule="evenodd" d="M0 82.825C0 16.5668 16.5596 0 82.789 0C149.018 0 165.578 16.5668 165.578 82.825C165.578 149.083 149.018 165.65 82.789 165.65C16.5596 165.65 0 149.083 0 82.825Z" fill="#D90217"/>
<path fill-rule="evenodd" clip-rule="evenodd" d="M86.2258 126.909C107.481 126.909 120.209 114.957 120.209 99.8888C120.209 76.6015 82.8165 78.9366 82.8165 71.0117C82.8165 68.3824 85.6101 65.7346 91.1974 65.7346C100.194 65.7346 109.2 70.8555 113.078 75.0477L124.556 60.292C116.34 52.6889 103.76 48.1841 91.1974 48.1841C65.4941 48.1841 58.6203 48.1841 32.917 48.1841L33.0365 48.8828C35.6004 61.0183 43.1634 68.5295 56.4975 72.1058L47.2619 76.3532C51.8567 84.3792 65.4114 91.1089 80.5559 95.4575C88.8173 98.0961 96.3068 99.7601 96.3068 104.072C96.3068 107.023 93.2007 109.505 88.3946 109.505C77.8357 109.505 66.3579 102.831 61.708 97.8662L49.4858 113.569C58.6387 122.422 72.4139 126.9 86.2258 126.9V126.909Z" fill="white"/>
</svg>
