<?xml version="1.0" encoding="utf-8"?>
<!-- Generator: Adobe Illustrator 26.0.0, SVG Export Plug-In . SVG Version: 6.00 Build 0)  -->
<svg version="1.1" id="Layer_1" xmlns="http://www.w3.org/2000/svg" xmlns:xlink="http://www.w3.org/1999/xlink" x="0px" y="0px"
	 viewBox="0 0 606.9 218.8" style="enable-background:new 0 0 606.9 218.8;" xml:space="preserve">
<style type="text/css">
	.st0{fill:#07000E;}
</style>
<g>
	<g>
		<g>
			<path class="st0" d="M185.8,101.2c-0.9-1.4-1.8-2.5-2.6-3.2c-1.3-1.1-2.8-1.7-4.6-1.7c-2,0-3.7,0.7-4.8,2c-1,1.1-1.5,2.4-1.5,3.8
				c0,2.2,1.8,4,5.3,5.4l4,1.5c4.2,1.6,7.1,3.6,8.5,6c1,1.6,1.6,3.5,1.6,5.6c0,3.8-1.4,7-4.3,9.6c-2.6,2.4-5.8,3.5-9.5,3.5
				c-3.1,0-5.7-0.8-8.1-2.5c-2.7-1.9-4.6-5.1-5.6-9.5l6.3-1.6c0.1,0.4,0.2,0.8,0.2,1c0.5,1.8,1.1,3.2,1.8,4.1
				c1.4,1.7,3.2,2.5,5.4,2.5c2.2,0,4-0.8,5.4-2.4c1.2-1.3,1.8-2.9,1.8-4.6c0-1.1-0.3-2.1-0.9-2.9c-0.8-1.1-2.7-2.2-5.5-3.3l-3.8-1.5
				c-6-2.3-9-6-9-10.9c0-3.4,1.3-6.3,3.8-8.5c2.5-2.2,5.5-3.3,9.1-3.3c3.9,0,7.2,1.4,9.7,4.2c0.8,0.8,1.6,2,2.5,3.4L185.8,101.2z"/>
			<path class="st0" d="M222.2,132.8H216v-2c-2,1.9-4.3,2.9-7.1,2.9c-3,0-5.6-0.9-7.8-2.9c-2.7-2.4-3.8-5.5-3.8-10.8v-14.9h6.2v14.4
				c0,2.7,0.3,4.7,1,6c0.9,1.6,2.5,2.4,4.9,2.4c2.3,0,4.5-1.1,5.4-2.7c0.7-1.3,1-3.3,1-6.3v-13.9h6.2V132.8z"/>
			<path class="st0" d="M228.9,105.1h6.2v2.4c2.8-2.2,5.6-3.3,8.5-3.3c2.3,0,4.5,0.6,6.7,1.9c2.3,1.3,4.1,3.1,5.4,5.4
				c1.3,2.3,2,4.8,2,7.5c0,4.5-1.6,8.1-4.9,11c-2.7,2.4-5.8,3.7-9.2,3.7c-2.9,0-5.7-1.1-8.5-3.3v17h-6.2V105.1z M237.4,112.4
				c-1.5,1.6-2.2,3.8-2.2,6.6c0,3.1,0.9,5.4,2.8,7.1c1.5,1.3,3.3,2,5.4,2c1.5,0,2.9-0.4,4.2-1.2c2.7-1.6,4-4.2,4-7.9
				c0-3.1-0.9-5.4-2.8-7.1c-1.5-1.3-3.3-2-5.4-2C240.9,109.9,238.9,110.8,237.4,112.4z"/>
			<path class="st0" d="M267.7,121.4c0.3,1.5,0.9,2.7,1.6,3.8c1.4,1.9,3.5,2.9,6.2,2.9c2.9,0,5.5-1.3,7-3.6l0.6-0.9l5.4,2.2
				c-3.1,5.3-7.4,7.9-12.9,7.9c-4.3,0-7.8-1.5-10.5-4.6c-2.5-2.8-3.7-6.2-3.7-10.1c0-4.5,1.6-8.3,4.8-11.2c2.6-2.4,5.6-3.5,9-3.5
				c3.9,0,7.2,1.5,9.9,4.4c1.3,1.5,2.4,3.4,3,5.6c0.5,1.7,0.7,3.5,0.7,5.3c0,0.3,0,0.9,0,1.8H267.7z M282.4,116.5
				c-0.5-1.7-1.1-3.2-2-4.3c-1.3-1.7-3.1-2.5-5.3-2.5c-3.8,0-6.6,2.5-7.4,6.8H282.4z"/>
			<path class="st0" d="M293.9,105.1h6.2v2.2c1.2-0.9,2.2-1.6,3-1.9c0.8-0.3,1.8-0.5,3-0.5c0.6,0,1.4,0,2.3,0.1v5.6
				c-1,0-1.7-0.1-2.2-0.1c-2.5,0-4.2,0.8-5.1,2.5c-0.7,1.3-1,3.4-1,6.4v13.3h-6.2V105.1z"/>
			<path class="st0" d="M312.2,105.1h6.2v2.4c2.8-2.2,5.6-3.3,8.5-3.3c2.3,0,4.5,0.6,6.7,1.9c2.3,1.3,4.1,3.1,5.4,5.4
				c1.3,2.3,2,4.8,2,7.5c0,4.5-1.6,8.1-4.9,11c-2.7,2.4-5.8,3.7-9.2,3.7c-2.9,0-5.7-1.1-8.5-3.3v17h-6.2V105.1z M320.7,112.4
				c-1.5,1.6-2.2,3.8-2.2,6.6c0,3.1,0.9,5.4,2.8,7.1c1.5,1.3,3.3,2,5.4,2c1.5,0,2.9-0.4,4.2-1.2c2.7-1.6,4-4.2,4-7.9
				c0-3.1-0.9-5.4-2.8-7.1c-1.5-1.3-3.3-2-5.4-2C324.2,109.9,322.2,110.8,320.7,112.4z"/>
			<path class="st0" d="M351,121.4c0.3,1.5,0.9,2.7,1.6,3.8c1.4,1.9,3.5,2.9,6.2,2.9c2.9,0,5.5-1.3,7-3.6l0.6-0.9l5.4,2.2
				c-3.1,5.3-7.4,7.9-12.9,7.9c-4.3,0-7.8-1.5-10.5-4.6c-2.5-2.8-3.7-6.2-3.7-10.1c0-4.5,1.6-8.3,4.8-11.2c2.6-2.4,5.6-3.5,9-3.5
				c3.9,0,7.2,1.5,9.9,4.4c1.3,1.5,2.4,3.4,3,5.6c0.5,1.7,0.7,3.5,0.7,5.3c0,0.3,0,0.9,0,1.8H351z M365.7,116.5
				c-0.5-1.7-1.1-3.2-2-4.3c-1.3-1.7-3.1-2.5-5.3-2.5c-3.8,0-6.6,2.5-7.4,6.8H365.7z"/>
			<path class="st0" d="M404.2,132.8H398v-2.4c-2.8,2.2-5.6,3.3-8.5,3.3c-2.3,0-4.5-0.6-6.7-1.9c-2.3-1.3-4.1-3.1-5.4-5.4
				c-1.3-2.3-2-4.8-2-7.5c0-4.5,1.6-8.1,4.9-11c2.7-2.4,5.8-3.7,9.2-3.7c2.9,0,5.7,1.1,8.5,3.3V91.2h6.2V132.8z M383.9,112.5
				c-1.5,1.6-2.2,3.8-2.2,6.4c0,3.1,0.9,5.4,2.8,7.1c1.6,1.3,3.4,2,5.4,2c2.4,0,4.3-0.9,5.9-2.5c1.5-1.6,2.2-3.8,2.2-6.6
				c0-3-0.9-5.4-2.8-7c-1.5-1.3-3.3-2-5.4-2C387.5,109.9,385.5,110.8,383.9,112.5z"/>
			<path class="st0" d="M415.8,121.4c0.3,1.5,0.9,2.7,1.6,3.8c1.4,1.9,3.5,2.9,6.2,2.9c2.9,0,5.5-1.3,7-3.6l0.6-0.9l5.4,2.2
				c-3.1,5.3-7.4,7.9-12.9,7.9c-4.3,0-7.8-1.5-10.5-4.6c-2.5-2.8-3.7-6.2-3.7-10.1c0-4.5,1.6-8.3,4.8-11.2c2.6-2.4,5.6-3.5,9-3.5
				c3.9,0,7.2,1.5,9.9,4.4c1.3,1.5,2.4,3.4,3,5.6c0.5,1.7,0.7,3.5,0.7,5.3c0,0.3,0,0.9,0,1.8H415.8z M430.6,116.5
				c-0.5-1.7-1.1-3.2-2-4.3c-1.3-1.7-3.1-2.5-5.3-2.5c-3.8,0-6.6,2.5-7.4,6.8H430.6z"/>
			<path class="st0" d="M445.1,123.5c0.9,1.7,1.7,2.9,2.4,3.6c0.8,0.7,1.7,1,2.9,1c1.3,0,2.3-0.4,3-1.2c0.6-0.7,0.9-1.4,0.9-2.2
				c0-0.6-0.2-1-0.5-1.5c-0.3-0.5-1.5-1.1-3.5-1.9l-2.8-1.1c-4-1.6-6-4-6-7.4c0-2.5,0.9-4.5,2.7-6.1c1.9-1.6,4.1-2.4,6.7-2.4
				c4,0,7.1,2,9.2,6l-4.9,2.5c-1.5-2.2-2.6-3-4.4-3c-2,0-3.4,1.1-3.4,2.8c0,0.5,0.2,1,0.4,1.4c0.3,0.4,1.5,1,3.5,1.8l2.6,1
				c4.6,1.8,6.6,4.1,6.6,7.6c0,2.7-1,4.9-3.1,6.7c-1.9,1.7-4.2,2.5-7.1,2.5c-5,0-8.4-2.6-10.4-8.1L445.1,123.5z"/>
			<path class="st0" d="M476.9,105.1v5.6h-4.4v13.4c0,2.4,0.6,3.3,1.9,3.3c0.6,0,1.6-0.2,2.9-0.5v5.8c-1.4,0.4-2.6,0.6-3.8,0.6
				c-2.2,0-3.9-0.7-5.2-2.2c-1.3-1.5-2-3.8-2-7v-13.4h-3v-5.6h3V99l6.2-2.5v8.6H476.9z"/>
			<path class="st0" d="M482.1,105.1h6.2v2.2c1.2-0.9,2.2-1.6,3-1.9c0.8-0.3,1.8-0.5,3-0.5c0.6,0,1.4,0,2.3,0.1v5.6
				c-1,0-1.7-0.1-2.2-0.1c-2.5,0-4.2,0.8-5.1,2.5c-0.7,1.3-1,3.4-1,6.4v13.3h-6.2V105.1z"/>
			<path class="st0" d="M506.5,93c0.8,0.8,1.2,1.7,1.2,2.8c0,1.1-0.4,2.1-1.2,2.8c-0.8,0.8-1.7,1.2-2.9,1.2c-1.1,0-2.1-0.4-2.8-1.2
				c-0.8-0.8-1.2-1.7-1.2-2.8c0-1.1,0.4-2,1.2-2.8c0.8-0.8,1.7-1.2,2.8-1.2C504.8,91.8,505.7,92.2,506.5,93z M506.8,105.1v27.7h-6.2
				v-27.7H506.8z"/>
			<path class="st0" d="M540.5,132.8h-6.2v-2.4c-2.8,2.2-5.6,3.3-8.5,3.3c-2.3,0-4.5-0.6-6.7-1.9c-2.3-1.3-4.1-3.1-5.4-5.4
				c-1.3-2.3-2-4.8-2-7.5c0-4.5,1.6-8.1,4.9-11c2.7-2.4,5.8-3.7,9.2-3.7c2.9,0,5.7,1.1,8.5,3.3v-2.4h6.2V132.8z M520.2,112.5
				c-1.5,1.6-2.2,3.7-2.2,6.4c0,3.1,0.9,5.4,2.8,7.1c1.5,1.3,3.3,2,5.4,2c2.4,0,4.4-0.9,6-2.6c1.5-1.6,2.2-3.8,2.2-6.6
				c0-3-0.9-5.4-2.8-7c-1.5-1.3-3.3-2-5.5-2C523.7,109.9,521.8,110.8,520.2,112.5z"/>
			<path class="st0" d="M547.2,105.1h6.2v2c2-1.9,4.3-2.9,7.1-2.9c3,0,5.6,0.9,7.8,2.9c2.7,2.4,3.8,5.5,3.8,10.8v14.9h-6.2v-14.4
				c0-2.7-0.3-4.7-1-6c-0.9-1.6-2.5-2.4-4.9-2.4c-2.4,0-4.5,1.1-5.4,2.7c-0.7,1.3-1,3.3-1,6.3v13.9h-6.2V105.1z"/>
		</g>
		<g>
			<g>
				<g>
					<path class="st0" d="M82.3,183.9c-26.2,0-47.4-21.3-47.4-47.4h6c0,22.8,18.6,41.4,41.4,41.4c24,0,41.4-15.8,41.4-37.7
						c0-9.7-3.1-17.1-10-24c-6.5-6.5-15.9-11.8-26.7-18c-2-1.2-4.1-2.3-6.2-3.5L80,94.2c-4.7-2.7-10.5-6.1-10.5-12.9
						c0-6.8,5.4-11.8,12.8-11.8c7,0,12.8,5.7,12.8,12.8h-6c0-3.7-3-6.7-6.7-6.7c-3.4,0-6.7,1.8-6.7,5.8c0,3.1,2.8,5,7.5,7.7l0.8,0.4
						c2.1,1.2,4.1,2.4,6.1,3.5c22.2,12.7,39.8,22.8,39.8,47.2c0,12.5-5,23.8-14,31.8C107,179.7,95.2,183.9,82.3,183.9z"/>
				</g>
				<g>
					<path class="st0" d="M84.7,149c-8.1,1.5-15.1-4.7-15.1-12.5h6c0,4.2,3.8,7.5,8.1,6.6c3.1-0.6,5.4-3.5,5.4-6.6
						c0-2.9-2.1-4.8-7.8-6.9c-14.6-5.5-25.3-11.7-32.8-18.9c-9-8.7-13.6-19.2-13.6-31.4c0-12.5,5-23.9,14-32.1
						c8.7-7.9,20.6-12.2,33.4-12.2c26.2,0,47.4,21.3,47.4,47.4h-6c0-22.8-18.6-41.4-41.4-41.4c-11.3,0-21.8,3.8-29.4,10.7
						c-7.7,7-12,16.8-12,27.6c0,10.6,3.8,19.5,11.7,27.1c6.9,6.6,16.9,12.4,30.7,17.6c3.8,1.4,11.7,4.4,11.7,12.6
						C95,142.6,90.6,148,84.7,149z"/>
				</g>
			</g>
		</g>
	</g>
</g>
</svg>
